Coordinates
version=1
nRows=5
nColumns=40
inDegrees=yes

Units are S.I. units (second, meters, Newtons, ...)
If the header above contains a line with 'inDegrees', this indicates whether rotational values are in degrees (yes) or radians (no).

endheader
time	pelvis_tilt	pelvis_list	pelvis_rotation	pelvis_tx	pelvis_ty	pelvis_tz	hip_flexion_r	hip_adduction_r	hip_rotation_r	knee_angle_r	knee_angle_r_beta	ankle_angle_r	subtalar_angle_r	mtp_angle_r	hip_flexion_l	hip_adduction_l	hip_rotation_l	knee_angle_l	knee_angle_l_beta	ankle_angle_l	subtalar_angle_l	mtp_angle_l	lumbar_extension	lumbar_bending	lumbar_rotation	arm_flex_r	arm_add_r	arm_rot_r	elbow_flex_r	pro_sup_r	wrist_flex_r	wrist_dev_r	arm_flex_l	arm_add_l	arm_rot_l	elbow_flex_l	pro_sup_l	wrist_flex_l	wrist_dev_l
      0.00000000	    -10.04737134	     -3.58401251	     -0.62617645	      1.17814934	      0.90994736	     -0.48727975	     32.63556900	      5.54323153	      2.28666743	      6.67495487	      0.11649994	     -2.25556603	      3.53320243	      0.00000000	    -12.60124465	      0.13507532	      0.43292691	     28.72097306	      0.50127554	    -23.96609451	      2.75982723	      0.00000000	     -4.16482088	      8.78346123	    -15.43351412	      0.00000000	     -5.97784075	      0.00000000	     62.97316375	     50.64547169	      0.00000000	      0.00000000	      0.00000000	     -5.97784075	      0.00000000	     62.97316375	     50.64547169	      0.00000000	      0.00000000
      0.01000000	     -9.04088472	     -2.92630942	     -0.84850309	      1.17931269	      0.90724059	     -0.48682708	     31.46057014	      5.03758510	      3.28961445	      7.57304438	      0.13217456	     -2.08693198	      3.72973531	      0.00000000	    -12.31922644	      1.06692177	      1.04610588	     33.74568552	      0.58897332	    -23.89864220	      3.04338343	      0.00000000	     -5.45252656	      8.21234513	    -14.82584687	      0.00000000	     -5.98647619	      0.00000000	     62.99611765	     50.61593429	      0.00000000	      0.00000000	      0.00000000	     -5.98647619	      0.00000000	     62.99611765	     50.61593429	      0.00000000	      0.00000000
      0.02000000	     -8.35070638	     -2.37383239	     -1.12312276	      1.18021910	      0.90309736	     -0.48575055	     30.62778115	      4.68014638	      4.20661677	      9.13246848	      0.15939164	     -3.21885855	      3.14560715	      0.00000000	    -11.42426448	      1.62831880	      1.01214139	     39.23283580	      0.68474216	    -21.89556089	      5.13812366	      0.00000000	     -6.34825009	      7.66247800	    -14.10964010	      0.00000000	     -6.04865808	      0.00000000	     63.16079773	     50.40685949	      0.00000000	      0.00000000	      0.00000000	     -6.04865808	      0.00000000	     63.16079773	     50.40685949	      0.00000000	      0.00000000
      0.03000000	     -7.23699376	     -2.03092533	     -1.34652593	      1.18152356	      0.89881357	     -0.48483884	     29.29489274	      4.40828276	      3.65337765	     11.26268954	      0.19657102	     -5.60429248	      2.29441885	      0.00000000	    -10.93735044	      1.75151208	      0.23774721	     44.47386933	      0.77621545	    -21.50194255	      6.27073837	      0.00000000	     -7.71568297	      7.40206622	    -13.30859243	      0.00000000	     -6.06876766	      0.00000000	     63.21378873	     50.34065857	      0.00000000	      0.00000000	      0.00000000	     -6.06876766	      0.00000000	     63.21378873	     50.34065857	      0.00000000	      0.00000000
      0.04000000	     -6.01841366	     -1.94882703	     -1.54982898	      1.18279231	      0.89377211	     -0.48332235	     27.53132990	      4.41339679	      3.34740554	     13.27871565	      0.23175731	     -8.34162978	     -0.18967284	      0.00000000	    -10.43387676	      1.27811397	     -0.96001034	     49.88837167	      0.87071634	    -20.37381232	      8.49573278	      0.00000000	     -9.18838990	      7.29921820	    -12.58214625	      0.00000000	     -6.10731100	      0.00000000	     63.31504018	     50.21547943	      0.00000000	      0.00000000	      0.00000000	     -6.10731100	      0.00000000	     63.31504018	     50.21547943	      0.00000000	      0.00000000
